<svg width="28" height="28" viewBox="0 0 28 28" fill="none" xmlns="http://www.w3.org/2000/svg">
<path fill-rule="evenodd" clip-rule="evenodd" d="M18 11C18 13.2091 16.2091 15 14 15C11.7909 15 10 13.2091 10 11C10 8.79086 11.7909 7 14 7C16.2091 7 18 8.79086 18 11ZM17 11C17 12.6569 15.6569 14 14 14C12.3431 14 11 12.6569 11 11C11 9.34315 12.3431 8 14 8C15.6569 8 17 9.34315 17 11Z" fill="white"/>
<path fill-rule="evenodd" clip-rule="evenodd" d="M24 14C24 16.2512 23.2561 18.3287 22.0007 20C21.9087 20.1225 21.8139 20.2429 21.7165 20.3609C19.8823 22.5834 17.1066 24 14 24C10.7284 24 7.82369 22.4289 5.99928 20C4.7439 18.3287 4 16.2512 4 14C4 8.47715 8.47715 4 14 4C19.5228 4 24 8.47715 24 14ZM14 23L14.016 23C16.6751 22.9953 19.0637 21.8375 20.7083 20C19.0592 18.1574 16.6649 17 14 17C11.3351 17 8.94078 18.1573 7.29166 20C8.93631 21.8375 11.3249 22.9953 13.9839 23L14 23ZM14 16C16.9011 16 19.5137 17.2354 21.3404 19.2088C22.3855 17.7387 23 15.9411 23 14C23 9.02944 18.9706 5 14 5C9.02944 5 5 9.02944 5 14C5 15.9411 5.61452 17.7387 6.65963 19.2088C8.48629 17.2354 11.0989 16 14 16Z" fill="white"/>
</svg>
